<svg width="250" height="70" viewBox="0 0 250 70" fill="none" xmlns="http://www.w3.org/2000/svg">
<g clip-path="url(#clip0_5558_5811)">
<path d="M136.281 50.3847H142.435V27.6153H136.281V36.2546V50.3847Z" fill="black"/>
<path d="M136.281 25.154H142.435V19H136.281V22.1895V25.154Z" fill="black"/>
<path d="M98.1312 27.6153H93.2049C91.5727 27.6153 90.0074 28.2637 88.8533 29.4178C87.6992 30.5719 87.0509 32.1372 87.0509 33.7693V50.3847H93.2049V35.6153C93.2048 35.3729 93.2525 35.1328 93.3452 34.9088C93.4379 34.6848 93.5739 34.4812 93.7453 34.3098C93.9168 34.1384 94.1203 34.0024 94.3443 33.9097C94.5683 33.8169 94.8084 33.7692 95.0509 33.7693H98.1312V27.6153Z" fill="black"/>
<path d="M79.0502 22.0766H72.8962V27.6153H67.9736V33.7693H72.8962V44.2306C72.8962 45.8628 73.5446 47.4281 74.6987 48.5822C75.8528 49.7363 77.4181 50.3846 79.0502 50.3846H83.9736V44.2306H80.8962C80.6538 44.2307 80.4137 44.183 80.1897 44.0903C79.9657 43.9976 79.7621 43.8616 79.5907 43.6902C79.4193 43.5187 79.2833 43.3152 79.1906 43.0912C79.0978 42.8672 79.0501 42.6271 79.0502 42.3846V22.0766Z" fill="black"/>
<path d="M101.82 50.3847H107.974V27.6153H101.82V34.9021V50.3847Z" fill="black"/>
<path d="M101.82 25.154H107.974V19H101.82V22.2576V25.154Z" fill="black"/>
<path d="M122.131 51C123.266 51.001 124.372 50.6444 125.293 49.9807C126.214 49.317 126.903 48.38 127.261 47.3028L133.823 27.6153H127.664L122.131 44.2307L116.592 27.6153H110.438L117 47.3028C117.358 48.38 118.047 49.3171 118.968 49.9808C119.889 50.6445 120.996 51.0011 122.131 51Z" fill="black"/>
<path d="M168.897 39C168.896 36.0237 167.788 33.1542 165.789 30.9493C163.79 28.7444 161.042 27.3616 158.08 27.0697C155.118 26.7777 152.153 27.5975 149.762 29.3696C147.371 31.1417 145.724 33.7396 145.141 36.6584C144.559 39.5771 145.082 42.6082 146.61 45.1625C148.138 47.7168 150.561 49.6118 153.408 50.4792C156.255 51.3466 159.323 51.1244 162.015 49.8559C164.708 48.5874 166.833 46.3631 167.976 43.6153H160.967C160.194 44.2971 159.262 44.7738 158.257 45.0017C157.251 45.2296 156.205 45.2014 155.214 44.9196C154.222 44.6379 153.317 44.1116 152.582 43.3891C151.847 42.6667 151.305 41.7711 151.006 40.7847H168.764C168.853 40.1939 168.898 39.5974 168.897 39ZM156.897 32.846C158.106 32.846 159.289 33.202 160.297 33.8696C161.305 34.5372 162.094 35.4868 162.566 36.6H151.229C151.7 35.4867 152.49 34.537 153.498 33.8694C154.506 33.2018 155.688 32.8459 156.897 32.846Z" fill="black"/>
<path d="M33.4923 25.3552V31.7604H45.8221L34.4112 42.6629C32.9966 44.0146 31.0774 44.3616 29.2785 43.593C27.4796 42.8244 26.4052 41.1959 26.4052 39.2386V25.5107H20V39.2386C20 43.7739 22.5907 47.6991 26.7596 49.4816C28.1619 50.0858 29.6723 50.3989 31.1993 50.4019C33.9843 50.4019 36.6968 49.335 38.8366 47.2909L50.2393 36.3997V48.5118H56.6452V25.3552H33.4923Z" fill="url(#paint0_linear_5558_5811)"/>
</g>
<defs>
<linearGradient id="paint0_linear_5558_5811" x1="25.7219" y1="49.6102" x2="53.3107" y2="22.0214" gradientUnits="userSpaceOnUse">
<stop stop-color="#FF00FF"/>
<stop offset="0.46" stop-color="#9116F9"/>
<stop offset="1" stop-color="#3199FF"/>
</linearGradient>
<clipPath id="clip0_5558_5811">
<rect width="148.897" height="32" fill="white" transform="translate(20 19)"/>
</clipPath>
</defs>
</svg>
